<?xml version="1.0" encoding="UTF-8" standalone="no"?>
<!-- Created with Inkscape (http://www.inkscape.org/) -->
<svg xmlns:dc="http://purl.org/dc/elements/1.1/" xmlns:cc="http://creativecommons.org/ns#" xmlns:rdf="http://www.w3.org/1999/02/22-rdf-syntax-ns#" xmlns:svg="http://www.w3.org/2000/svg" xmlns="http://www.w3.org/2000/svg" xmlns:sodipodi="http://sodipodi.sourceforge.net/DTD/sodipodi-0.dtd" xmlns:inkscape="http://www.inkscape.org/namespaces/inkscape" width="183.94545" height="176.82608" id="svg2" sodipodi:version="0.32" inkscape:version="0.46+pre4" version="1.0" sodipodi:docname="the-glorious-quraan.svg" inkscape:output_extension="org.inkscape.output.svg.inkscape">
  <defs id="defs4">
    <inkscape:perspective sodipodi:type="inkscape:persp3d" inkscape:vp_x="0 : 526.18109 : 1" inkscape:vp_y="0 : 1000 : 0" inkscape:vp_z="744.09448 : 526.18109 : 1" inkscape:persp3d-origin="372.04724 : 350.78739 : 1" id="perspective10"/>
    <inkscape:perspective id="perspective2390" inkscape:persp3d-origin="372.04724 : 350.78739 : 1" inkscape:vp_z="744.09448 : 526.18109 : 1" inkscape:vp_y="0 : 1000 : 0" inkscape:vp_x="0 : 526.18109 : 1" sodipodi:type="inkscape:persp3d"/>
  </defs>
  <sodipodi:namedview id="base" pagecolor="#ffffff" bordercolor="#666666" borderopacity="1.0" gridtolerance="10000" guidetolerance="10" objecttolerance="10" inkscape:pageopacity="0.0" inkscape:pageshadow="2" inkscape:zoom="1.4" inkscape:cx="256.68553" inkscape:cy="60.221964" inkscape:document-units="px" inkscape:current-layer="layer1" showgrid="false" inkscape:window-width="1280" inkscape:window-height="753" inkscape:window-x="-4" inkscape:window-y="-4"/>
  <metadata id="metadata7">
    <rdf:RDF>
      <cc:Work rdf:about="">
        <dc:format>image/svg+xml</dc:format>
        <dc:type rdf:resource="http://purl.org/dc/dcmitype/StillImage"/>
        <dc:title>The holy quraan</dc:title>
        <dc:subject>
          <rdf:Bag>
            <rdf:li>The holy quraan blessed glorious islam islamic muslim religion religious</rdf:li>
          </rdf:Bag>
        </dc:subject>
      </cc:Work>
    </rdf:RDF>
  </metadata>
  <g inkscape:label="Layer 1" inkscape:groupmode="layer" id="layer1" transform="translate(69.5, -272.47)">
    <path style="fill:#000000" d="M 18.5,448.31657 C 13.12885,446.22907 10.31674,438.37854 12.32927,431.08978 C 13.44849,427.03631 12.48519,426.37584 8.97251,428.78829 C 7.88763,429.53336 3.175,431.43967 -1.5,433.02452 C -13.06056,436.94361 -23.9238,437.09706 -30.4613,433.43361 C -38.81632,428.75166 -41.81374,420.68734 -39.6214,408.78907 C -38.984,405.32977 -38.16546,401.69712 -37.80244,400.71652 C -37.43818,399.73261 -39.21267,400.82303 -41.76209,403.14972 C -46.73588,407.68899 -50.05527,409.01303 -53.98735,408.02614 C -61.14567,406.22952 -62.90287,392.53799 -57.57141,380.10021 C -55.80103,375.97008 -55.80224,375.77858 -57.61286,373.54256 C -63.10546,366.75949 -62.27339,357.75185 -54.97044,344.93684 C -50.00471,336.22312 -49.73966,335.86061 -48.92781,336.67246 C -48.61311,336.98717 -49.48469,339.03321 -50.86466,341.21922 C -53.8734,345.98537 -57.99832,355.65913 -58.9793,360.24966 C -60.06084,365.31077 -57.97324,369.43361 -54.32902,369.43361 C -52.71843,369.43361 -50.0482,368.73421 -48.39516,367.8794 C -45.41691,366.33928 -35.10091,357.55532 -24.5,347.53293 L -19,342.33308 L -22.5,339.41533 C -24.425,337.81056 -30.49377,333.43258 -35.98616,329.68648 C -46.98857,322.18223 -48.48584,319.9973 -46.9332,313.71159 C -46.06389,310.19227 -45.33312,309.59501 -36.25947,304.98798 L -26.51894,300.04235 L -28.6069,297.81982 C -30.19609,296.1282 -30.53679,294.87761 -30.03315,292.58455 C -29.66921,290.92754 -28.8357,289.12718 -28.18091,288.58375 C -24.35119,285.40536 14.92892,271.5292 16.27788,272.87816 C 17.3629,273.96317 15.06563,275.08769 4,278.88819 C -8.26301,283.09993 -26.57184,290.30926 -27.79338,291.40724 C -28.22974,291.79946 -27.77974,293.65335 -26.79338,295.52699 C -25.80702,297.40063 -24.93926,299.06935 -24.86502,299.23526 C -24.79078,299.40116 -18.71578,297.50067 -11.36502,295.01194 C 5.98216,289.13875 28.37906,283.43361 34.08848,283.43361 C 37.58378,283.43361 39.16252,284.00522 41.14635,285.98905 C 43.31753,288.16023 43.59876,289.10002 43.01668,292.23905 C 42.22211,296.5239 38.85397,301.28119 33.07993,306.27409 C 30.83597,308.21448 25.90182,312.98167 22.11516,316.86784 L 15.23033,323.93361 L 17.77962,318.93361 C 20.83757,312.93596 24.88368,308.50711 33.25,301.99981 C 36.6875,299.32613 39.5,296.52996 39.5,295.78609 C 39.5,292.8107 35.61305,290.43358 30.75,290.4349 C 20.84439,290.43761 -8.35282,299.05557 -30,308.36612 C -45.84692,315.18196 -46.17482,315.55122 -39.41981,318.97424 C -33.04003,322.20712 -13.71924,334.01694 -11.2664,336.18299 C -9.70183,337.56463 -9.0307,337.50523 -4.38305,335.57375 C -1.55069,334.39667 1.43416,333.43361 2.24993,333.43361 C 3.35345,333.43361 3.57251,332.72962 3.10563,330.68361 C 2.76049,329.17111 1.85163,324.10861 1.08594,319.43361 C 0.32025,314.75861 -0.56791,309.80861 -0.88775,308.43361 C -1.20759,307.05861 -1.12295,304.37186 -0.69967,302.46306 L 0.06994,298.99252 L 3.78497,304.93178 C 7.73763,311.25094 8.75299,314.71839 5.97583,312.41355 C 3.5393,310.39141 3.07173,312.02891 4.26047,318.42103 C 5.87451,327.10011 7.4002,329.61574 12.75888,332.43361 C 17.85874,335.11538 18.93858,336.83797 17.96115,340.73239 C 17.36575,343.10464 17.2265,343.14388 14.40265,341.73516 C 10.99119,340.0333 1.623,339.70577 -1.03863,341.19529 C -2.66182,342.10367 -2.32749,342.59125 1.96489,345.57553 C 4.62141,347.42247 12.24106,352.84152 18.89746,357.61785 C 30.74395,366.11836 31.0071,366.2464 31.33554,363.66968 C 31.52009,362.22185 31.17884,351.20619 30.57719,339.19043 C 29.65818,320.83629 29.70749,316.91569 30.88566,314.66707 L 32.28804,311.99054 L 33.97492,315.96208 C 39.82778,329.74177 40.63673,334.09971 36.4555,329.32527 L 34.36099,326.93361 L 34.94665,342.43361 C 35.26877,350.95861 35.81463,360.76991 36.15967,364.2365 C 36.76364,370.30444 36.9293,370.61198 40.60368,372.4865 C 45.15518,374.8085 48.3596,374.93694 53.03212,372.98464 C 56.4018,371.57669 56.5,371.37767 56.5,365.9562 C 56.5,362.88749 55.85556,353.97703 55.06791,346.15517 C 54.28025,338.33331 53.12512,324.73361 52.50095,315.93361 C 51.87677,307.13361 50.96632,295.97253 50.47772,291.13121 C 49.87381,285.1474 49.93613,281.46502 50.67235,279.63121 C 51.7283,277.00101 51.85136,277.13349 55.59773,284.93361 C 57.71104,289.33361 59.4374,293.83361 59.43409,294.93361 C 59.42886,296.67363 59.09692,296.54364 56.88051,293.93361 L 54.33295,290.93361 L 54.90796,297.43361 C 55.22422,301.00861 56.63504,316.85215 58.04313,332.64147 C 61.29545,369.11065 60.49345,375.80004 52.36486,380.00349 C 49.25875,381.60973 43.75487,381.57175 38.63615,379.90877 C 36.62531,379.25549 36.35526,379.42401 36.82789,381.0372 C 37.13347,382.08023 37.67985,387.88361 38.04206,393.93361 C 38.7238,405.32069 37.54133,417.89516 35.26379,423.47791 C 34.16291,426.17641 34,424.66523 34,411.75467 C 34,403.60309 33.61889,392.09156 33.15308,386.17349 L 32.30616,375.41337 L 25.48107,370.17349 C 21.72727,367.29156 14.12088,361.41998 8.57799,357.12555 C 3.03509,352.83112 -1.5,349.57544 -1.5,349.8907 C -1.5,350.20596 -0.05357,353.02684 1.71429,356.15931 C 4.17493,360.51932 4.92244,363.0363 4.90241,366.89416 C 4.85284,376.44161 0.61785,380.9049 -11.21098,383.87621 C -19.04349,385.84367 -27.99394,390.22432 -32.19003,394.14406 C -37.82628,399.4091 -39.02854,413.60628 -34.46363,420.99246 C -29.38601,429.20823 -14.12998,431.40888 0.33996,426.01282 C 13.22515,421.20773 24.5,413.76385 24.5,410.06187 C 24.5,408.81339 22.66293,402.91692 20.41763,396.9586 C 17.17622,388.35693 16.47526,385.38456 17.01487,382.52945 L 17.69449,378.93361 L 22.07668,383.93361 C 26.9222,389.46227 27.49672,390.88473 24.5,389.93361 C 22.22058,389.21015 22.02925,390.11471 23.61484,394.11851 C 28.73667,407.05174 27.93629,413.88106 20.48151,420.85414 C 15.28946,425.71069 13.51539,429.82407 13.50558,437.02862 C 13.49946,441.5193 15.73218,444.43361 19.1787,444.43361 C 22.38576,444.43361 28.95801,439.06283 35.49019,431.10402 C 42.66201,422.36588 47.29096,418.93302 58,414.41061 C 62.4,412.5525 66.39097,410.70907 66.86883,410.31409 C 67.34668,409.91912 67.83588,406.52193 67.95594,402.76478 C 68.197,395.22117 70.15411,390.36158 73.95375,387.87196 C 75.8045,386.6593 76.83678,386.54348 78.38919,387.3743 C 80.2653,388.37837 82.48144,393.84751 82.49442,397.50547 C 82.50791,401.30557 79.07093,409.14138 76.32461,411.57176 L 73.34351,414.20991 L 75.61032,416.32176 C 78.45909,418.97579 80.73928,418.98028 86.18807,416.34256 C 88.92945,415.01549 90.72324,413.39233 91.09783,411.89985 C 91.42246,410.60644 91.19785,401.30991 90.59871,391.2409 C 89.62608,374.89499 85.80764,314.81358 85.33595,308.43361 C 85.2343,307.05861 85.50353,304.4112 85.93426,302.55047 C 86.86756,298.51862 87.22646,298.94811 91.55849,309.28085 C 94.85773,317.15018 94.82429,319.17419 91.45863,315.32527 L 89.36726,312.93361 L 89.92127,320.43361 C 90.22597,324.55861 90.95369,335.13361 91.53843,343.93361 C 92.12317,352.73361 92.79866,361.05861 93.03952,362.43361 C 94.32765,369.78714 94.68733,404.34816 93.53386,409.93361 C 91.58596,419.36593 85.58584,425.43361 78.20643,425.43361 C 75.5882,425.43361 72.09597,422.14084 71.04755,418.68361 C 70.13729,415.68197 69.08226,415.8103 59.33429,420.10832 C 48.3964,424.93099 41.82278,429.88251 34.99141,438.44438 C 27.44884,447.89759 23.50167,450.26047 18.5,448.31657 z M 76.51505,405.76749 C 79.18011,403.52499 79.58764,402.62181 79.0799,400.08311 C 78.15565,395.46185 75.73659,393.24106 73.12413,394.61549 C 70.03038,396.24314 69.46538,397.51861 70.10385,401.43361 C 71.4215,409.51326 71.77748,409.75389 76.51505,405.76749 z M -46.88955,399.82088 C -44.7503,398.38388 -40.07112,394.3965 -36.49138,390.96004 C -28.72722,383.50666 -22.90113,380.38485 -10.15765,376.8496 C -1.02067,374.31485 3.5,371.75699 3.5,369.1219 C 3.5,366.65362 -3.89834,355.46608 -8.58014,350.85467 L -13.38124,346.12577 L -16.19062,347.9523 C -17.73578,348.95689 -23.75057,354.19611 -29.55683,359.59501 C -42.74881,371.86147 -47.16146,375.21366 -51.14973,375.99864 C -53.92601,376.54507 -54.5635,377.34273 -56.52646,382.72632 C -59.1155,389.82701 -59.63548,398.35074 -57.62756,400.77595 C -55.62917,403.18964 -51.33615,402.8078 -46.88955,399.82088 z M -42.83333,387.76694 C -44.04207,386.5582 -43.5279,379.74464 -41.94142,375.94765 C -41.0842,373.89603 -40.17829,372.42198 -39.92829,372.67198 C -39.67829,372.92198 -40.2077,374.88312 -41.10475,377.03007 C -42.0018,379.17702 -42.66494,381.10961 -42.57839,381.32472 C -42.49184,381.53984 -41.92956,382.63344 -41.32888,383.75495 C -40.26855,385.73464 -40.19686,385.73953 -38.86836,383.9227 C -37.1946,381.63369 -37.10566,382.47403 -38.66052,385.88656 C -39.78871,388.36267 -41.47687,389.1234 -42.83333,387.76694 z M -25.01567,370.32578 C -26.65705,369.0804 -28.14846,367.95924 -28.3299,367.8343 C -28.96889,367.39431 -25.25753,362.43361 -24.28936,362.43361 C -23.75002,362.43361 -22.04119,363.33619 -20.49195,364.43934 L -17.67516,366.44507 L -15.70841,363.74516 C -13.77299,361.08826 -13.69906,361.07316 -11.06709,362.7977 C -7.45363,365.16532 -6.98348,366.87263 -9.15295,369.74876 L -10.97921,372.16988 L -14.20692,369.70799 L -17.43463,367.24609 L -19.73299,369.91809 L -22.03135,372.59009 L -25.01567,370.32578 z M 41.31094,446.77924 C 43.93959,442.99143 44.21988,440.22013 41.88367,441.11663 C 40.50691,441.64493 40.43802,441.41795 41.41885,439.58524 C 43.82087,435.09703 46.56409,438.45045 44.52251,443.37928 C 43.85962,444.97964 42.37329,447.10905 41.21956,448.11132 C 39.18019,449.88295 39.18273,449.84593 41.31094,446.77924 z M 58.96875,441.25861 C 57.61578,438.42805 56.11313,436.81627 54.46875,436.43177 C 51.63186,435.76844 50.17432,430.43361 52.82999,430.43361 C 54.3843,430.43361 60.5,436.84017 60.5,438.46841 C 60.5,438.99927 60.95,439.43361 61.5,439.43361 C 62.05,439.43361 62.50168,438.42111 62.50374,437.18361 C 62.50779,434.74752 65.95811,428.43361 67.2853,428.43361 C 68.88428,428.43361 70.5,430.87375 70.5,433.2886 C 70.5,435.6898 70.45566,435.70346 68.47637,433.91223 C 65.89418,431.57538 65.02448,432.46528 62.77933,439.74157 L 61,445.5082 L 58.96875,441.25861 z M -48.0826,420.59333 C -46.05511,416.67262 -46.0696,414.43361 -48.12244,414.43361 C -49.45124,414.43361 -49.51957,414.16212 -48.5,412.93361 C -47.07575,411.21749 -44.90439,410.97028 -44.00712,412.42208 C -43.27078,413.61352 -46.78306,421.87248 -48.46928,422.91462 C -49.19685,423.36429 -49.04542,422.45523 -48.0826,420.59333 z M -23.63882,416.68361 C -24.42582,414.69682 -24.42304,412.42622 -23.62882,408.5022 C -23.02419,405.51492 -22.72864,402.87163 -22.97205,402.62823 C -23.21545,402.38482 -25.00882,403.12628 -26.9573,404.27592 C -29.6481,405.86352 -30.5,406.03164 -30.5,404.97504 C -30.5,404.20992 -26.35217,401.1876 -21.28259,398.25876 C -10.04293,391.7653 -10.35852,391.90134 -11.11648,393.87656 C -11.45629,394.76209 -13.63574,396.60093 -15.95969,397.96286 C -19.13983,399.82654 -20.47139,401.39475 -21.34253,404.30237 C -22.79968,409.16588 -22.80671,411.992 -21.36836,414.67957 C -20.2725,416.72721 -20.19348,416.7349 -18.86836,414.9227 C -17.25447,412.71557 -17.13019,413.33074 -18.47525,416.86851 C -19.75277,420.22863 -22.27029,420.13848 -23.63882,416.68361 z M -5.96604,409.05018 C -8.65991,406.89508 -8.82246,406.43676 -7.73748,404.05548 C -6.32604,400.95771 -4.88257,400.7999 -1.52914,403.37674 C 0.59246,405.00702 0.80449,405.66375 -0.02914,408.02279 C -1.32273,411.68347 -2.43404,411.87579 -5.96604,409.05018 z M 8.43879,408.31924 C 7.08062,405.78147 7.96339,398.98225 10.1118,395.43361 L 11.62534,392.93361 L 11.02375,395.43361 C 9.4053,402.15932 9.30475,404.49343 10.56792,406.01545 C 11.77759,407.47302 12.00981,407.45689 13.19739,405.83278 C 14.74879,403.71111 14.85479,404.37025 13.52475,407.86851 C 12.34127,410.9813 9.97568,411.19094 8.43879,408.31924 z M 46.56657,405.30922 C 47.11866,404.27763 48.07428,403.43361 48.69017,403.43361 C 49.30606,403.43361 49.00592,402.54514 48.02319,401.45923 C 46.35319,399.6139 46.34397,399.32069 47.88213,396.97316 C 50.08885,393.60527 54.11816,391.07311 56.07544,391.82418 C 58.5118,392.7591 57.11751,394.96838 54.28125,394.6671 C 52.90132,394.52052 51.1901,395.1021 50.47853,395.95948 C 48.3667,398.50407 50.82477,399.89136 56.98826,399.63344 C 61.50996,399.44423 62.34836,399.66519 61.86712,400.91929 C 61.54752,401.75217 60.32167,402.44429 59.14301,402.45735 C 57.96436,402.4704 54.42662,403.53942 51.28139,404.83295 C 46.02242,406.99579 45.64346,407.03407 46.56657,405.30922 z M 102.33937,395.70496 C 102.52603,389.35717 101.94005,372.18679 101.03719,357.54857 C 98.94099,323.56237 98.83445,318.69916 100.15714,317.37647 C 100.93557,316.59804 102.26921,318.74899 104.89016,325.01011 C 108.62657,333.93589 108.84715,336.83508 105.45384,332.41867 L 103.54447,329.93361 L 103.53017,333.93361 C 103.5223,336.13361 104.18093,346.93361 104.99378,357.93361 C 106.89553,383.66924 106.89046,394.75577 104.97402,401.20915 C 104.13473,404.03535 103.12223,406.5499 102.72402,406.79705 C 102.32581,407.04419 102.15272,402.05275 102.33937,395.70496 z M -7.46415,394.74263 C -7.44444,394.29767 -4.10374,391.29042 -0.04037,388.05985 C 4.023,384.82928 8.83229,380.65425 10.64694,378.782 C 13.50623,375.83197 13.78316,375.11667 12.72316,373.41933 C 11.08362,370.79402 11.17917,367.94477 12.9562,366.46996 C 14.9955,364.77749 16.5,366.03569 16.5,369.43361 C 16.5,371.01869 16.95,372.59369 17.5,372.93361 C 19.30258,374.04767 18.6459,376.61469 16.71509,376.00188 C 15.45776,375.60282 14.4098,376.31629 13.16966,378.41568 C 10.93985,382.19045 -7.55647,396.82605 -7.46415,394.74263 z M 15,369.43361 C 14.66008,368.88361 13.95852,368.43361 13.44098,368.43361 C 12.92344,368.43361 12.5,368.88361 12.5,369.43361 C 12.5,369.98361 13.20156,370.43361 14.05902,370.43361 C 14.91648,370.43361 15.33992,369.98361 15,369.43361 z M 59.25,387.25422 C 62.46483,385.64504 62.02874,384.12901 58.5,384.64692 C 55.13473,385.14083 54.53658,384.01958 57.35941,382.50885 C 59.30706,381.4665 66.5,382.17521 66.5,383.40946 C 66.5,384.79755 62.96161,387.17277 60,387.77272 C 57.26137,388.3275 57.19603,388.28233 59.25,387.25422 z M -67.09502,380.00554 C -64.07528,374.85274 -63.99291,374.43361 -66,374.43361 C -67.90557,374.43361 -67.92628,373.03228 -66.04381,371.46996 C -64.27589,370.00272 -62.5,370.91822 -62.5,373.29685 C -62.5,375.1183 -67.99796,384.43361 -69.073,384.43361 C -69.41237,384.43361 -68.52228,382.44098 -67.09502,380.00554 z M 68.67826,379.12336 L 66.4566,376.75851 L 68.59888,374.03503 L 70.74117,371.31155 L 73.12059,373.54689 L 75.5,375.78224 L 78.04494,373.39139 C 80.74564,370.85421 82.71324,371.23923 84.91929,374.73654 C 85.73344,376.02724 85.48552,376.89254 83.82614,378.55191 L 81.68005,380.698 L 78.76255,378.62056 L 75.84504,376.54311 L 73.37249,379.01567 L 70.89993,381.48822 L 68.67826,379.12336 z M 71.77544,359.79004 C 71.65193,354.48865 71.28427,349.88455 70.95842,349.5587 C 70.63258,349.23285 68.59613,349.98484 66.43299,351.22979 C 61.00137,354.35583 61.46963,352.58682 66.99834,349.09397 C 70.51082,346.8749 71.39811,345.7822 71.05842,344.09397 C 70.81934,342.90577 70.3538,336.98361 70.02389,330.93361 C 69.69398,324.88361 68.99336,313.4781 68.46696,305.58804 C 67.57138,292.16436 67.83895,286.41844 69.35841,286.4447 C 70.01351,286.45602 74.65848,296.915 76.01518,301.43361 C 76.7631,303.92461 76.7581,303.92673 74.62677,302.02307 C 73.4503,300.97228 72.32185,300.29728 72.11909,300.52307 C 71.91633,300.74887 72.13192,305.43361 72.59818,310.93361 C 73.06444,316.43361 73.7209,325.20861 74.05698,330.43361 C 74.84762,342.72565 75.00274,343.19359 77.52894,340.90742 C 79.31119,339.2945 79.36062,338.93708 78.0081,337.44256 C 77.17864,336.52602 76.5,335.09381 76.5,334.25986 C 76.5,332.25645 80.08944,329.06184 81.41792,329.88288 C 82.69433,330.67175 82.60501,340.43361 81.32139,340.43361 C 80.81686,340.43361 79.31487,341.67111 77.98364,343.18361 C 75.94913,345.49514 75.55816,346.9977 75.5316,352.60732 C 75.50042,359.19306 73.70236,369.43582 72.57825,369.43127 C 72.26021,369.42999 71.89895,365.09143 71.77544,359.79004 z M 80.86163,333.93361 C 80.25303,332.34763 78.5,331.85277 78.5,333.26694 C 78.5,334.32446 79.59309,335.43361 80.63528,335.43361 C 81.07635,335.43361 81.17821,334.75861 80.86163,333.93361 z M 109.93433,367.32735 C 108.04841,364.27587 111.05552,349.43361 113.55969,349.43361 C 114.02308,349.43361 113.5341,351.34611 112.47307,353.68361 C 110.32206,358.42239 110.04919,361.20022 111.51531,363.43361 C 112.39059,364.76694 112.60941,364.76694 113.48469,363.43361 C 114.74987,361.50632 114.76785,362.59891 113.52475,365.86851 C 112.49284,368.58265 111.06795,369.1616 109.93433,367.32735 z M 44.47525,360.86851 C 43.93886,359.45771 43.5,357.89959 43.5,357.40602 C 43.5,355.7326 47.69225,345.29252 48.17169,345.77197 C 48.43369,346.03397 47.86175,348.46223 46.9007,351.16811 C 45.03031,356.43432 45.53287,360.01871 48.00843,359.06875 C 49.79994,358.38128 49.99838,360.53523 48.3,362.23361 C 46.49551,364.0381 45.55234,363.70148 44.47525,360.86851 z M 21.52879,353.4874 C 20.32351,351.23531 22.66237,342.94054 25.20955,340.43361 C 26.57234,339.09235 26.60382,339.18647 25.50703,341.323 C 23.20111,345.8149 22.4792,349.70362 23.68216,351.1531 C 24.60912,352.27001 24.97801,352.28463 25.64642,351.23094 C 26.28167,350.22951 26.47287,350.28714 26.48469,351.48361 C 26.50073,353.10702 24.64564,355.43361 23.33518,355.43361 C 22.91453,355.43361 22.10166,354.55781 21.52879,353.4874 z M -41.0176,352.0471 C -42.53619,349.72944 -42.54229,349.1008 -41.09353,344.23018 C -40.22702,341.31707 -39.07089,338.25861 -38.52434,337.43361 C -37.19803,335.43156 -37.26238,336.07931 -38.93849,341.6022 C -40.89993,348.06528 -39.71284,352.24645 -36.75595,349.28956 C -35.89722,348.43083 -35.74959,348.67205 -36.16401,350.2568 C -37.17105,354.1077 -39.18153,354.84929 -41.0176,352.0471 z M -69.5,346.54548 C -69.5,346.03847 -67.39089,344.38763 -64.8131,342.87695 C -62.2353,341.36626 -58.17555,338.3322 -55.79144,336.1346 C -51.62245,332.29176 -51.52317,332.06549 -53.19517,330.21795 C -54.76965,328.47816 -54.79204,328.04461 -53.43246,325.62235 C -52.6068,324.15132 -51.15922,322.79908 -50.21563,322.61736 C -48.85757,322.35582 -48.5,323.01941 -48.5,325.80127 C -48.5,327.73414 -48.05,329.59369 -47.5,329.93361 C -45.88271,330.93315 -46.34715,333.61161 -48.07626,333.25693 C -48.94321,333.07911 -51.84848,335.05353 -54.53242,337.64455 C -59.35259,342.29783 -69.5,348.3323 -69.5,346.54548 z M -50.89583,325.70444 C -51.91235,324.68793 -52.75108,326.21833 -51.91705,327.56782 C -51.28702,328.58724 -51.05147,328.58803 -50.71275,327.57186 C -50.48115,326.87707 -50.56354,326.03674 -50.89583,325.70444 z M -61.83115,332.76913 C -62.86731,331.73297 -62.61989,326.62574 -61.5,325.93361 C -60.9283,325.58028 -60.5,326.46404 -60.5,327.99704 C -60.5,330.26718 -60.26991,330.48754 -59,329.43361 C -58.175,328.74892 -57.5,328.62408 -57.5,329.15618 C -57.5,330.5842 -61.05259,333.54769 -61.83115,332.76913 z M -15.47532,325.49319 C -16.65679,322.64088 -20.5,318.36365 -20.5,319.90107 C -20.5,320.32865 -21.175,320.1183 -22,319.43361 C -24.00299,317.77128 -23.92613,314.43361 -21.88487,314.43361 C -20.99655,314.43361 -18.78744,316.0519 -16.97574,318.02982 L -13.68174,321.62603 L -12.52359,316.04726 C -11.23369,309.83384 -9.83125,308.26011 -7.91698,310.87803 C -6.38349,312.9752 -7.18555,316.14806 -8.83278,314.50083 C -10.79287,312.54074 -11.23716,313.38874 -11.92908,320.41062 C -12.70601,328.29529 -13.71541,329.74199 -15.47532,325.49319 z M 42.55375,319.53405 C 41.37229,317.32646 42.34862,311.16068 44.40348,307.85262 C 45.46503,306.14365 45.51327,306.20724 44.84424,308.43361 C 43.45638,313.05201 43.84118,316.94557 45.67186,316.80775 C 46.95782,316.71093 47.16659,317.16067 46.57635,318.75625 C 45.51737,321.61896 43.84285,321.94274 42.55375,319.53405 z M 60.67621,319.20982 C 59.15717,317.69078 59.29479,313.84408 61.02595,309.43361 L 62.39974,305.93361 L 61.82819,310.14531 C 61.13833,315.22878 62.0869,318.7009 63.53848,316.40558 C 64.33498,315.14612 64.47159,315.16858 64.48469,316.56117 C 64.50769,319.00657 62.12797,320.66158 60.67621,319.20982 z M 15.50409,308.44126 C 14.67976,306.90097 14.92354,305.31983 16.57851,301.47275 C 17.75589,298.73585 19.34488,295.97731 20.1096,295.34265 C 22.06861,293.71682 21.85125,294.61108 19.11769,299.42359 C 16.5795,303.89215 16.58243,308.44001 19.12214,306.33224 C 20.75947,304.97338 20.89458,305.82781 19.46482,308.49935 C 18.14098,310.97296 16.84888,310.95401 15.50409,308.44126 z M -45.84201,306.75827 C -47.04086,305.55941 -46.5241,299.3809 -44.97432,296.38395 C -42.76993,292.12113 -42.24659,292.7598 -44.11586,297.43158 C -45.72398,301.45065 -45.38277,305.09723 -43.50706,303.93798 C -42.95318,303.59566 -42.5,303.73703 -42.5,304.25215 C -42.5,305.60856 -45.06687,307.53341 -45.84201,306.75827 z M 34.75,278.13419 C 38.92356,276.48501 38.05741,275.09684 33.25,275.73014 L 29,276.29001 L 31.36078,274.36181 C 34.81492,271.5406 41.5,271.97122 41.5,275.01492 C 41.5,276.6212 36.39408,279.48059 33.79966,279.32723 C 32.54397,279.253 32.83122,278.89239 34.75,278.13419 z" id="path2396"/>
  </g>
</svg>